<svg xmlns="http://www.w3.org/2000/svg" width="1683" height="562" viewBox="0 0 1683 562"><g fill="none" fill-rule="evenodd" transform="translate(254.67)"><path fill="#FF6F00" d="M870.795374,188.203168 C878.149428,188.768978 882.297868,192.729646 883.617827,199.896569 L928.684976,460.734856 C928.873541,461.300665 928.873541,461.866475 928.873541,462.432285 C928.49641,466.20435 926.42219,467.901779 922.462315,467.524572 L875.13238,463.375301 C868.721154,462.809491 864.572713,459.603236 862.687059,453.945139 L844.207642,395.478133 L793.106397,383.030319 L778.586856,411.132203 C776.135504,415.847284 772.55276,417.921919 768.027189,417.544713 L725.599957,413.772648 C721.640082,413.395441 719.942992,411.320806 720.320123,407.548741 C720.320123,406.794328 720.508689,406.039915 720.88582,405.285502 L822.145481,196.501711 C824.596832,191.22082 829.122404,188.580375 835.345064,188.580375 L868.344023,188.203168 L870.795374,188.203168 L870.795374,188.203168 Z M823.654005,296.838637 L807.625939,338.89716 C807.060243,340.217383 806.871677,341.160399 806.683112,342.103415 C806.494546,344.932464 808.00307,346.818496 811.397249,347.761513 L834.590802,353.796816 C834.779368,353.98542 835.156499,353.98542 835.53363,353.98542 C839.304939,354.362626 841.37916,352.665197 841.756291,348.893132 C841.756291,348.327322 841.756291,347.572909 841.567725,347.0071 L834.590802,298.913272 C834.025106,295.707017 832.139451,293.820985 828.556707,293.632382 C826.105356,293.443778 824.408267,294.575398 823.654005,296.838637 Z M707.12054,119.928794 L722.205778,134.639847 C733.331141,145.390232 739.176671,158.026649 739.553802,172.549099 L742.57085,274.206247 C742.94798,289.294507 738.045278,302.308131 727.674177,313.247119 L711.834677,329.844204 C701.27501,340.783193 688.641123,346.629893 673.74445,347.0071 L591.529902,349.270339 C582.667325,349.458942 578.141753,345.121067 577.953188,336.445318 L572.107658,127.661527 C571.919093,120.117397 575.690402,115.968126 583.421587,115.02511 L667.898921,106.537964 C669.218879,106.34936 670.727403,106.34936 672.047361,106.34936 C685.624075,105.972154 697.315135,110.498632 707.12054,119.928794 Z M639.425533,170.85167 C635.654224,171.040273 633.768569,172.926306 633.957135,177.075577 L633.957135,177.452783 L639.425533,293.066572 C639.614099,297.215843 641.499754,299.101876 644.893932,299.101876 C645.459629,299.101876 646.025325,299.101876 646.779587,298.913272 L665.070438,294.952604 C671.481665,293.632382 674.498712,289.294507 674.310147,282.316187 L671.67023,189.900597 C671.481665,183.110881 667.898921,178.773006 661.110563,176.69837 L641.499754,171.040273 C640.934057,170.85167 640.179795,170.85167 639.425533,170.85167 Z M1025.7962,338.89716 C1021.27062,338.33135 1018.81927,340.405986 1018.44214,344.932464 L1011.46522,410.566393 C1010.71096,418.299126 1006.37395,421.693984 998.642768,420.939571 L961.683934,416.978903 C953.95275,416.22449 950.370005,411.886616 951.312833,404.153883 L975.260648,179.338816 C976.392041,169.342844 981.86044,165.004969 991.85441,165.947985 L1098.58247,177.26418 C1115.74193,179.150213 1130.6386,185.562723 1143.27249,196.690314 L1147.42093,200.462379 C1160.05482,211.778574 1165.52322,225.923817 1163.82613,242.898109 L1159.11199,286.276855 C1157.22633,303.062544 1149.87228,317.019184 1136.86126,327.958172 L1132.14713,331.91884 C1119.13611,342.857828 1104.05087,347.572909 1087.45711,345.686877 L1087.07998,345.686877 L1025.7962,338.89716 Z M1093.67977,262.512846 C1094.6226,253.459891 1091.03985,247.61319 1082.55441,244.972745 L1043.14422,232.713534 C1042.20139,232.336327 1041.44713,232.147724 1040.88143,232.147724 C1038.24152,231.770518 1036.54443,233.467947 1036.1673,236.862805 C1036.1673,237.051408 1036.1673,237.051408 1036.1673,237.240012 L1032.01886,284.390823 C1031.64173,288.728697 1032.96168,291.180539 1035.97873,291.369143 C1036.73299,291.369143 1037.67582,291.369143 1038.80721,291.180539 L1078.2174,284.579426 C1087.07998,283.0706 1091.98268,277.978312 1092.92551,269.302563 L1093.67977,262.512846 Z"/><path fill="#FFF7EE" d="M462.36255,149.539503 C454.065669,145.767438 445.580223,142.561183 437.094776,139.354928 C419.935318,133.131021 402.587294,127.472924 385.616401,120.494604 C377.508086,117.099745 369.588335,113.32768 361.857151,109.178409 C357.897276,106.91517 353.937401,104.463328 350.166091,102.011486 C339.417859,94.467356 331.309544,92.7699268 328.10393,93.3357366 C320.561311,94.8445625 310.755907,111.253045 306.230335,116.722539 L306.230335,116.722539 C297.367758,127.095717 288.693746,137.657499 279.831168,148.030677 C272.854246,156.140617 266.065888,164.43916 259.088966,172.549099 C255.694787,176.509767 251.923478,180.470435 248.90643,184.619707 C245.700817,189.146184 248.340734,194.615679 253.243436,196.124505 C255.506222,196.878917 258.9004,196.124505 260.59749,197.444727 C261.540317,198.19914 262.106013,199.896569 262.106013,201.216792 C262.294579,205.17746 258.711835,209.138128 256.071918,211.967177 C253.620567,214.607622 254.940525,218.568291 258.523269,218.945497 C268.328674,220.077116 278.134079,221.020133 287.750918,223.094768 C292.465055,224.037785 297.179192,225.169404 301.704764,226.67823 C306.418901,228.187056 310.944472,229.884485 315.847174,231.016105 C324.898317,233.09074 334.138026,234.78817 343.000603,237.428615 C349.411829,239.314647 355.823056,241.76649 362.234282,243.463919 C363.931371,243.841125 365.439895,244.218332 367.136984,244.595538 C368.456943,244.972745 369.39977,245.915761 370.342597,246.858777 C371.096859,247.61319 372.416818,249.499223 372.982514,250.065032 C372.793949,249.687826 372.982514,249.687826 372.982514,249.876429 C372.982514,249.876429 372.982514,249.876429 372.982514,249.687826 C372.982514,249.687826 372.982514,249.876429 372.982514,249.876429 C372.982514,249.876429 372.982514,249.876429 372.982514,249.876429 C372.982514,249.876429 372.982514,249.876429 372.982514,249.876429 C372.982514,249.876429 372.982514,250.065032 372.982514,250.065032 C372.982514,250.065032 372.982514,249.876429 372.982514,249.876429 C372.982514,250.253636 372.982514,250.442239 372.982514,250.819445 C372.982514,251.008048 372.982514,251.196652 372.982514,251.573858 C372.982514,251.573858 372.982514,251.762461 372.982514,251.762461 C372.793949,252.328271 372.605383,253.082684 372.416818,253.648494 C372.039687,255.15732 371.47399,256.477543 370.908294,257.986369 C369.965466,260.626814 368.834074,263.267259 367.514115,265.907705 C367.32555,266.096308 367.32555,266.473514 367.136984,266.662118 C367.136984,266.850721 367.136984,266.850721 366.948419,266.850721 C366.948419,266.850721 366.948419,266.850721 366.948419,267.039324 C366.759853,267.416531 366.571288,267.793737 366.382722,268.170944 C365.817026,269.302563 365.062764,270.622786 364.497068,271.754405 C362.234282,276.09228 359.782931,280.430155 357.520145,284.768029 C353.56027,292.123556 349.600395,299.479082 345.451954,306.834609 C341.303514,314.378738 337.155073,321.922868 333.006633,329.466998 C328.858192,337.199731 325.275448,345.30967 320.18418,352.476594 C318.10996,355.305642 315.847174,357.757485 312.641561,359.26631 C309.058817,360.96374 304.910377,360.39793 301.139067,359.454914 C292.27649,357.191675 283.413912,353.608213 275.117031,349.836148 C267.008716,346.064083 259.088966,341.537606 251.546347,336.445318 C249.660692,335.125095 247.775037,333.993476 246.077948,332.48465 C244.192293,331.164427 242.306638,329.466998 240.043853,328.523982 C235.329716,326.449346 230.804144,329.089791 229.672751,333.804873 C228.352793,338.708557 227.787097,343.800844 226.844269,348.704529 C225.901442,353.796816 224.958614,359.077707 224.015787,364.169995 C223.638656,366.621837 223.07296,368.885076 222.695829,371.336918 C222.130132,373.977364 221.564436,376.617809 221.753001,379.258254 C222.318698,383.973335 226.090007,386.425178 230.049882,388.31121 C246.83221,395.85534 265.123061,399.250198 282.282519,406.039915 C290.956531,409.434773 298.687716,414.527061 307.550293,417.733316 C311.887299,419.242142 316.224305,420.562365 320.372746,422.259794 C322.446966,423.014207 324.332621,423.76862 326.406841,424.711636 C328.669627,425.843256 330.555282,427.163478 332.818067,428.295098 C337.72077,430.74694 342.434907,429.238114 344.697692,424.33443 C346.394782,420.373762 348.091871,416.413093 349.78896,412.452425 C352.994573,405.096899 356.011621,397.552769 359.028669,390.008639 C366.194157,371.714125 375.810996,354.739833 384.862139,337.388334 C403.907252,301.176511 421.820973,264.398879 439.546128,227.621246 C448.408705,209.326732 457.082717,190.843614 465.945294,172.360496 C467.076687,170.097257 468.019515,167.834018 469.150907,165.570779 C470.2823,163.30754 471.225128,161.044301 471.036562,158.215252 C471.225128,153.500171 466.510991,151.425536 462.36255,149.539503 Z M332.440936,156.517823 C330.555282,162.930334 328.481061,167.456811 326.218276,169.908654 C325.464014,170.663067 324.898317,171.794686 324.144055,173.114909 L323.201228,175.000941 L322.446966,176.69837 L322.258401,177.26418 L322.069835,177.641387 L321.504139,178.584403 C320.18418,180.847642 319.618484,184.053897 317.732829,187.071549 C317.732829,187.260152 317.732829,187.448755 317.544264,187.448755 L317.355698,187.637359 L317.355698,187.825962 C312.075865,185.939929 307.550293,183.299484 303.590418,180.281832 C303.024722,179.527419 302.836157,178.961609 302.836157,178.584403 C303.024722,178.3958 303.024722,178.207196 303.024722,177.82999 L303.213287,177.26418 L304.34468,174.812338 L305.476073,172.360496 C306.230335,170.474463 307.173162,168.965637 307.550293,167.456811 C309.058817,163.496143 312.075865,159.158269 315.470043,153.688775 C315.847174,153.122965 316.224305,152.179949 316.790002,151.236932 L318.298526,148.78509 L318.675657,147.842074 C319.052788,147.276264 319.429919,145.956042 321.504139,147.087661 C326.595407,149.539503 330.366716,151.991345 333.195198,154.065981 L333.006633,154.631791 L333.006633,155.197601 C332.629502,155.76341 332.440936,156.140617 332.440936,156.517823 Z M365.439895,163.118937 L365.439895,163.684747 C365.439895,164.250556 365.251329,164.43916 365.062764,164.816366 C363.177109,171.228876 361.102889,175.755354 358.840103,178.207196 C358.085841,178.961609 357.520145,180.093229 356.765883,181.413451 L355.823056,183.299484 L355.068794,184.996913 L354.880228,185.562723 L354.691663,185.939929 L354.125966,186.882946 C352.806008,189.146184 352.240312,192.35244 350.354657,195.370092 C350.354657,195.558695 350.354657,195.747298 350.166091,195.747298 L349.977526,195.935901 L349.977526,196.124505 C344.697692,194.238472 340.172121,191.598027 336.212246,188.580375 C335.64655,187.825962 335.457984,187.260152 335.457984,186.882946 C335.64655,186.694342 335.64655,186.505739 335.64655,186.128533 L335.835115,185.562723 L336.966508,183.110881 L338.097901,180.659039 C338.852163,178.773006 339.79499,177.26418 340.172121,175.755354 C341.680645,171.794686 344.697692,167.456811 348.091871,161.987317 C348.469002,161.421508 348.846133,160.478491 349.411829,159.535475 L350.920353,157.083633 L351.297484,156.140617 C351.674615,155.574807 352.051746,154.254584 354.125966,155.386204 C359.217234,157.838046 362.988544,160.289888 365.817026,162.364524 L365.439895,163.118937 Z M238.346763,336.068111 C238.346763,335.502302 238.535329,335.879508 238.346763,336.068111 L238.346763,336.068111 Z M373.736776,250.442239 C373.925341,250.630842 373.925341,251.196652 373.736776,250.442239 L373.736776,250.442239 Z M103.333882,276.09228 C103.333882,275.337867 103.333882,274.772057 103.145316,274.017644 L103.145316,274.017644 C102.956751,273.451835 102.768185,272.886025 102.391054,272.320215 C102.202489,272.131612 102.202489,271.943009 102.013923,271.754405 L102.202489,271.754405 C101.259661,270.434183 99.939703,269.67977 98.4311791,269.491166 C98.0540482,269.491166 97.6769172,269.491166 97.2997863,269.491166 C95.602697,269.868373 94.6598696,271.188596 94.2827386,272.320215 C94.2827386,272.320215 94.2827386,272.320215 94.2827386,272.320215 C93.3399113,274.206247 93.5284767,279.109932 92.9627803,280.807361 C92.5856493,282.316187 91.4542565,285.333839 90.6999946,286.465458 L90.6999946,286.465458 L90.5114291,286.654062 L90.5114291,286.465458 C89.1914708,287.974284 87.6829469,289.294507 85.6087267,290.237523 C83.9116374,290.991936 82.0259826,291.369143 80.3288933,291.180539 C78.0661076,290.991936 76.3690183,290.04892 75.2376254,288.540094 C73.3519707,286.088252 73.5405361,282.693393 73.5405361,279.864345 C73.5405361,279.109932 73.5405361,278.544122 73.5405361,277.978312 C73.3519707,273.640438 72.9748397,269.302563 72.5977088,265.153292 C72.4091433,263.833069 72.4091433,262.512846 72.2205778,261.192624 C71.6548814,254.780113 71.4663159,248.933413 71.6548814,243.463919 C71.6548814,239.691854 72.0320123,235.919789 72.4091433,231.770518 C72.5977088,230.638898 72.5977088,229.318675 72.5977088,228.187056 C72.7862742,225.735214 72.7862742,223.283372 73.3519707,220.642926 C74.294798,216.116448 77.1232802,213.098796 81.0831552,212.15578 C82.0259826,211.967177 83.1573755,211.778574 84.2887683,211.967177 C86.5515541,212.15578 88.8143398,213.098796 90.5114291,214.796226 C93.7170422,217.813878 93.5284767,221.585942 93.5284767,224.414991 L93.5284767,225.169404 C93.5284767,228.564262 94.4713041,231.016105 96.7340898,232.713534 C98.0540482,233.845153 99.7511375,234.410963 101.448227,234.599566 C102.202489,234.599566 102.956751,234.599566 103.711013,234.410963 C104.088143,234.410963 104.276709,234.033757 104.276709,234.033757 C105.973798,227.998453 106.162364,221.020133 104.465274,214.984829 C103.145316,210.458351 100.316834,204.234444 93.9056077,200.273776 C90.88856,198.387743 87.305816,197.256124 83.5345064,197.067521 C81.4602862,196.878917 79.3860659,197.067521 77.5004112,197.444727 C71.8434468,198.576347 67.5064409,201.593999 64.4893932,206.686286 C64.3008278,207.063493 64.1122623,207.252096 63.7351313,207.817906 L63.1694349,208.572319 C61.4723456,210.646954 58.078167,209.515335 58.078167,206.874889 L58.078167,205.931873 L58.078167,205.366063 C58.078167,204.988857 58.078167,204.423047 58.078167,204.045841 C58.078167,199.896569 58.2667325,195.747298 58.6438634,190.089201 C58.8324289,187.825962 59.0209944,185.37412 59.2095599,183.110881 C59.7752563,176.886974 60.1523873,170.28586 60.3409527,163.87335 C60.3409527,159.158269 60.3409527,154.820394 59.7752563,150.482519 L59.7752563,149.91671 C59.3981253,146.333248 59.0209944,142.561183 57.5124706,139.920738 C56.1925122,137.657499 54.118292,136.337276 52.0440717,136.148673 C51.6669408,136.148673 51.1012443,136.148673 50.7241134,136.148673 C49.404155,136.337276 48.4613277,137.091689 48.2727622,137.468896 C47.8956312,138.411912 47.8956312,140.297944 47.8956312,141.80677 C47.8956312,142.561183 47.8956312,143.315596 47.8956312,144.070009 C47.5185003,149.91671 47.1413693,155.008997 46.7642384,160.101285 C46.0099765,170.097257 45.44428,179.338816 45.2557145,190.277804 C45.2557145,191.22082 45.2557145,191.78663 45.2557145,192.541043 C45.44428,193.672662 46.1985419,204.045841 42.9929288,206.497683 L42.9929288,206.497683 L42.9929288,206.497683 C42.0501014,207.252096 40.9187086,207.440699 39.9758812,207.440699 C35.4503097,207.063493 35.6388752,201.593999 35.8274407,198.010537 C35.8274407,197.256124 35.8274407,196.501711 35.8274407,195.935901 C35.6388752,193.672662 35.4503097,191.22082 35.2617443,188.768978 C34.8846133,185.562723 34.5074823,182.356468 34.5074823,178.961609 C34.5074823,172.549099 35.2617443,166.136589 36.0160062,159.912682 C36.5817026,154.820394 37.3359645,149.539503 37.52453,144.258612 C37.7130955,136.337276 34.5074823,135.017053 33.3760895,134.451244 C32.810393,134.262641 32.2446966,134.074037 31.4904347,134.074037 C30.5476073,134.074037 29.7933454,134.262641 29.0390835,134.451244 C28.4733871,134.639847 26.9648633,135.582863 26.5877323,139.166325 C26.0220359,143.315596 25.8334704,147.842074 25.6449049,152.179949 C25.6449049,153.877378 25.4563394,155.386204 25.4563394,157.083633 C25.267774,161.987317 25.267774,167.268208 25.4563394,173.303512 C25.6449049,176.321164 25.4563394,179.338816 25.4563394,182.356468 C25.4563394,185.562723 25.267774,188.768978 25.4563394,191.975233 C25.4563394,192.541043 25.4563394,193.106853 25.6449049,193.672662 C26.0220359,199.896569 26.2106013,204.423047 23.7592501,206.874889 C22.8164228,207.817906 21.4964644,208.383715 19.9879406,208.195112 C19.6108096,208.195112 19.4222442,208.195112 19.0451132,208.006509 L17.3480239,207.629302 L16.7823275,205.931873 C16.593762,204.988857 16.4051965,204.234444 16.216631,203.480031 C16.0280656,202.725618 16.0280656,201.971205 16.0280656,201.405395 C15.2738037,190.65501 14.7081072,179.904626 14.7081072,169.154241 C14.7081072,161.421508 14.7081072,153.688775 14.8966727,145.956042 L14.8966727,145.578835 C15.0852382,142.561183 15.0852382,139.732135 13.5767144,137.657499 C12.633887,136.525879 11.3139286,135.771466 9.80540482,135.582863 C9.23970839,135.582863 8.86257743,135.582863 8.296881,135.582863 C5.65696432,135.96007 1.50852382,138.223309 1.6970893,148.030677 C1.6970893,150.105313 1.88565477,152.179949 1.88565477,154.254584 C2.07422025,159.724078 2.26278573,165.570779 2.4513512,171.228876 C2.82848216,185.562723 2.82848216,201.028189 2.82848216,218.568291 C2.82848216,236.108392 2.63991668,253.837097 2.4513512,270.811389 L2.4513512,270.811389 L2.4513512,270.811389 C1.50852382,288.917301 1.88565477,307.211815 2.26278573,320.979852 C2.4513512,327.958172 2.82848216,335.125095 3.01704764,342.103415 L3.20561311,347.572909 L3.58274407,360.209327 C3.58274407,360.96374 3.58274407,361.718153 3.58274407,362.472566 C3.58274407,365.490218 3.58274407,368.696473 5.09126789,370.582505 C6.03409527,371.902728 7.73118457,372.657141 10.1825358,372.845744 C10.9367977,372.845744 11.6910596,372.845744 12.8224525,372.845744 L19.4222442,372.657141 L26.0220359,372.468538 C28.850518,372.468538 31.6790002,372.468538 34.5074823,372.279934 C36.9588335,372.279934 39.5987502,372.279934 42.2386669,372.091331 C42.8043633,372.091331 43.5586253,372.091331 44.1243217,372.091331 C46.0099765,372.091331 50.158417,371.902728 51.8555063,371.902728 C55.2496848,371.714125 57.3239051,370.393902 57.8896015,367.753456 C58.455298,365.113011 58.6438634,362.095359 58.6438634,359.26631 C58.6438634,357.946088 58.6438634,356.814468 58.8324289,355.682849 L59.2095599,349.647545 L59.9638218,338.708557 C60.1523873,336.822524 60.3409527,335.313699 60.5295182,333.804873 C61.0952146,330.410014 62.415173,325.50633 65.997917,322.111471 C68.6378337,319.659629 71.8434468,318.339407 74.4833635,317.584994 C76.1804528,317.019184 77.8775421,316.453374 79.5746314,316.076168 C83.5345064,314.944548 87.1172505,313.812929 90.3228636,311.926896 C95.225566,308.909244 98.0540482,304.00556 99.7511375,296.272827 C100.316834,293.443778 100.88253,290.426126 101.448227,287.408475 C101.636792,286.276855 101.825358,285.145236 102.013923,284.013616 C102.202489,283.259203 102.391054,282.50479 102.57962,281.750377 C102.768185,280.995964 102.956751,280.052948 103.145316,279.298535 C103.145316,279.298535 103.145316,279.109932 103.145316,279.109932 C103.333882,278.355519 103.522447,277.223899 103.333882,276.09228 Z"/><path fill="#FF6F00" d="M199.313709,215.550639 C214.776079,231.204708 217.415995,257.043352 208.553418,289.671713 C208.364852,290.237523 208.553418,290.237523 208.176287,290.61473 L207.799156,291.557746 L206.856329,292.500762 C203.46215,292.877969 199.879406,292.877969 195.730965,292.312159 C194.411007,291.934952 192.336787,291.746349 190.262567,291.369143 L185.171299,290.426126 C157.452174,285.711045 143.875459,282.316187 126.904566,277.412503 C112.385024,273.263231 100.128268,269.11396 89.9457327,268.925357 C89.1914708,268.925357 88.2486434,268.54815 86.7401195,268.170944 C84.4773338,267.605134 83.5345064,266.284911 83.5345064,264.398879 C83.5345064,254.214304 84.6658993,246.292967 86.3629886,241.20068 L86.5515541,240.823473 C86.3629886,240.823473 87.6829469,239.126044 87.4943815,239.314647 C89.7571672,226.866833 96.9226553,219.322704 109.933673,207.440699 C132.750096,187.071549 174.234501,190.277804 199.313709,215.550639 Z"/></g></svg>